<?xml version="1.0" standalone="no"?>
<!DOCTYPE svg PUBLIC "-//W3C//DTD SVG 20010904//EN"
 "http://www.w3.org/TR/2001/REC-SVG-20010904/DTD/svg10.dtd">
<svg version="1.0" xmlns="http://www.w3.org/2000/svg"
 width="507.000000pt" height="507.000000pt" viewBox="0 0 507.000000 507.000000"
 preserveAspectRatio="xMidYMid meet">
<metadata>
Created by potrace 1.14, written by Peter Selinger 2001-2017
</metadata>
<g transform="translate(0.000000,507.000000) scale(0.100000,-0.100000)"
fill="#000000" stroke="none">
<path d="M2338 5065 c-2 -1 -34 -6 -73 -9 -38 -4 -81 -8 -95 -11 -14 -2 -41
-6 -60 -9 -137 -22 -392 -92 -495 -136 -169 -72 -372 -175 -406 -206 -8 -8
-19 -14 -22 -14 -4 0 -44 -27 -90 -59 -571 -406 -927 -980 -1039 -1674 -32
-203 -32 -558 2 -757 22 -128 26 -153 34 -178 3 -9 7 -28 10 -42 19 -100 104
-337 169 -470 76 -158 227 -398 304 -486 16 -18 47 -54 70 -82 148 -173 355
-348 573 -483 229 -142 499 -252 761 -310 101 -22 108 -24 184 -33 28 -4 61
-9 75 -11 137 -22 432 -21 563 1 16 2 50 7 75 9 26 2 58 7 72 10 14 3 41 8 60
11 19 3 78 17 130 31 841 218 1504 847 1764 1673 49 154 91 362 102 510 8 105
13 139 19 150 3 6 0 10 -7 10 -8 0 -9 3 -3 8 14 10 17 32 5 32 -7 0 -7 6 0 20
8 15 8 20 -1 20 -8 0 -7 5 2 17 11 13 11 17 2 20 -7 3 -13 9 -13 14 0 6 5 7
12 3 7 -5 8 -3 4 5 -5 7 -10 40 -12 74 -9 141 -22 231 -58 412 -64 315 -226
662 -444 954 -76 101 -294 333 -377 402 -232 190 -435 309 -745 435 -85 34
-314 97 -400 109 -24 4 -47 8 -50 10 -3 2 -27 6 -55 9 -27 4 -66 9 -85 12 -38
6 -456 14 -462 9z"/>
</g>
</svg>
