<?xml version="1.0" encoding="UTF-8"?>
<svg version="1.1" xmlns="http://www.w3.org/2000/svg" width="295" height="213">
<path d="M0 0 C97.35 0 194.7 0 295 0 C295 70.29 295 140.58 295 213 C197.65 213 100.3 213 0 213 C0 142.71 0 72.42 0 0 Z " fill="#FCE8D7" transform="translate(0,0)"/>
<path d="M0 0 C97.35 0 194.7 0 295 0 C295 70.29 295 140.58 295 213 C197.65 213 100.3 213 0 213 C0 142.71 0 72.42 0 0 Z M146 2 C145.35933594 2.96679688 144.71867188 3.93359375 144.05859375 4.9296875 C143.18513564 6.24495095 142.31142009 7.56004346 141.4375 8.875 C140.98584473 9.55522217 140.53418945 10.23544434 140.06884766 10.9362793 C136.86698848 15.74247308 133.57583354 20.47287414 130.1796875 25.14453125 C128.82115647 26.91483812 128.82115647 26.91483812 129 29 C124.91594084 27.20998457 120.83288024 25.41770263 116.75 23.625 C115.59113281 23.11710937 114.43226562 22.60921875 113.23828125 22.0859375 C112.12324219 21.59609375 111.00820312 21.10625 109.859375 20.6015625 C108.83295898 20.15119629 107.80654297 19.70083008 106.74902344 19.23681641 C105.08293205 18.48722325 103.43311474 17.69750027 101.82128906 16.83740234 C99.87981427 15.79112762 99.87981427 15.79112762 97 16 C96.49056215 19.81129968 95.9941935 23.62419614 95.5 27.4375 C95.35691406 28.50677734 95.21382813 29.57605469 95.06640625 30.67773438 C94.2742251 36.84543049 93.84308402 42.7822041 94 49 C92.77482666 49.08302368 92.77482666 49.08302368 91.52490234 49.16772461 C87.80805547 49.42130191 84.09153242 49.67935662 80.375 49.9375 C78.44720703 50.06801758 78.44720703 50.06801758 76.48046875 50.20117188 C74.61455078 50.33168945 74.61455078 50.33168945 72.7109375 50.46484375 C71.56931152 50.543396 70.42768555 50.62194824 69.25146484 50.70288086 C66.1285201 50.98825582 63.08481678 51.44228147 60 52 C60.62537276 54.76512859 61.45457526 57.23247676 62.625 59.8125 C62.97433594 60.5859375 63.32367188 61.359375 63.68359375 62.15625 C64.7080755 64.36937379 65.74257684 66.57665748 66.78515625 68.78125 C67.0982373 69.44535889 67.41131836 70.10946777 67.73388672 70.79370117 C68.3608867 72.12105981 68.99132531 73.44680057 69.62548828 74.77075195 C71.06093265 77.80574796 72.37440058 80.68849376 73 84 C72.4328125 84.26683594 71.865625 84.53367187 71.28125 84.80859375 C62.595893 89.34461067 54.79649735 96.09234479 47 102 C48.52452929 106.2841203 51.38803458 107.86470292 55.125 110.25 C56.76855469 111.30960938 56.76855469 111.30960938 58.4453125 112.390625 C59.28835937 112.92171875 60.13140625 113.4528125 61 114 C44.42914809 113.25147242 28.03688186 110.84439296 11.72143555 107.91455078 C8.10332317 107.27844607 4.67580017 106.84952865 1 107 C2.50006391 110.44779086 4.50409262 112.82360533 7.0625 115.5625 C10.23785117 119.02560159 13.29828184 122.53195256 16.25 126.1875 C20.49969443 131.44724504 24.9157771 136.5461507 29.39550781 141.61010742 C32.87485247 145.57756543 35.99567971 149.66042625 39 154 C38.44828125 154.23332031 37.8965625 154.46664062 37.328125 154.70703125 C34.38744733 156.34019284 32.20922749 158.39339207 29.75 160.6875 C28.76220697 161.60078875 27.77392383 162.51354769 26.78515625 163.42578125 C25.86605469 164.27527344 24.94695313 165.12476563 24 166 C20.18854151 169.41025233 16.3130466 172.74094442 12.39453125 176.02734375 C11.4341394 176.83776123 11.4341394 176.83776123 10.4543457 177.66455078 C9.16408578 178.75252761 7.86971498 179.83565013 6.57104492 180.91357422 C5.00989055 182.23260166 3.49991758 183.61173359 2 185 C2 185.66 2 186.32 2 187 C20.18344956 189.96546703 38.30898111 192.6285551 56.625 194.625 C57.86032471 194.76043213 59.09564941 194.89586426 60.3684082 195.03540039 C61.53847412 195.16035889 62.70854004 195.28531738 63.9140625 195.4140625 C64.9654541 195.5270166 66.0168457 195.6399707 67.10009766 195.75634766 C69.72540024 195.97692789 72.36544704 196 75 196 C75 199.96 75 203.92 75 208 C119.5420608 216.90841216 175.12763674 213.75462369 220 208 C220 204.04 220 200.08 220 196 C221.47210938 196.04640625 222.94421875 196.0928125 224.4609375 196.140625 C232.2840922 196.13562778 239.91116693 194.91510858 247.625 193.75 C249.17173221 193.52131279 250.71852659 193.29304566 252.26538086 193.06518555 C256.11842932 192.49501431 259.96972673 191.91382749 263.82061768 191.32928467 C265.89011343 191.01660285 267.96023943 190.70863402 270.03076172 190.40283203 C273.54289456 189.88239738 277.05299506 189.35033516 280.5625 188.8125 C282.12121826 188.58095215 282.12121826 188.58095215 283.71142578 188.34472656 C284.65356934 188.19616211 285.59571289 188.04759766 286.56640625 187.89453125 C287.38052979 187.76925049 288.19465332 187.64396973 289.03344727 187.51489258 C291.21645991 187.12017195 291.21645991 187.12017195 293 185 C286.08538489 178.50311998 279.12619369 172.18855016 271.72265625 166.24609375 C266.98899112 162.34098981 262.50070812 158.16990172 258 154 C258.87333919 149.52790107 261.41201955 146.88090985 264.375 143.5625 C265.47308331 142.30766525 266.57072997 141.05244828 267.66796875 139.796875 C268.22532715 139.16330078 268.78268555 138.52972656 269.35693359 137.87695312 C271.8324426 135.04906111 274.26270107 132.18388123 276.6875 129.3125 C277.36014893 128.51815552 277.36014893 128.51815552 278.04638672 127.70776367 C281.79814056 123.26647984 285.47346974 118.76632609 289.125 114.2421875 C291 112 291 112 292.75 110.3203125 C294.22916875 109.06096806 294.22916875 109.06096806 294 107 C286.02044456 107.54234255 278.2443551 108.52755759 270.375 109.9375 C262.89187723 111.23087924 255.42444239 112.41779678 247.875 113.25 C247.16005371 113.32984131 246.44510742 113.40968262 245.70849609 113.49194336 C241.78988757 113.89983703 237.93864611 114.07361955 234 114 C234.9384375 113.39671875 235.876875 112.7934375 236.84375 112.171875 C238.06297955 111.36530776 239.28170367 110.55797615 240.5 109.75 C241.12003906 109.35425781 241.74007812 108.95851563 242.37890625 108.55078125 C244.39334116 107.24417789 244.39334116 107.24417789 247 105 C247.45172169 101.14854258 247.45172169 101.14854258 245.6105957 99.49194336 C244.65286255 98.79790405 244.65286255 98.79790405 243.67578125 98.08984375 C242.97646484 97.57486328 242.27714844 97.05988281 241.55664062 96.52929688 C240.81607422 96.00400391 240.07550781 95.47871094 239.3125 94.9375 C238.59126953 94.40833984 237.87003906 93.87917969 237.12695312 93.33398438 C231.07166917 88.30527747 231.07166917 88.30527747 224 86 C224 85.34 224 84.68 224 84 C223.34 84 222.68 84 222 84 C224.48893895 77.87965832 227.00513265 71.82646568 230.01953125 65.9453125 C231.14462125 63.71306223 232.20871129 61.46006694 233.25 59.1875 C233.58515625 58.45917969 233.9203125 57.73085938 234.265625 56.98046875 C235.17383786 54.88323279 235.17383786 54.88323279 235 52 C231.61596555 50.87198852 228.70655065 50.69028802 225.14453125 50.46484375 C224.48289474 50.42186661 223.82125824 50.37888947 223.13957214 50.33460999 C221.0307683 50.19849335 218.92166266 50.06792653 216.8125 49.9375 C215.38083596 49.84606899 213.94919497 49.75427636 212.51757812 49.66210938 C209.01197623 49.43721291 205.50608242 49.21729171 202 49 C201.94465088 48.21874756 201.88930176 47.43749512 201.83227539 46.63256836 C201.57824061 43.06735808 201.32040429 39.50243237 201.0625 35.9375 C200.97548828 34.70837891 200.88847656 33.47925781 200.79882812 32.21289062 C200.37852487 26.43761263 199.94264196 20.71529768 199 15 C193.89163624 16.32804309 189.31129794 18.08663663 184.5625 20.375 C183.90870361 20.68445557 183.25490723 20.99391113 182.58129883 21.31274414 C179.09065342 22.97150578 175.62909815 24.67888116 172.1875 26.4375 C169 28 169 28 167 28 C165.53778105 26.09183461 164.19818656 24.18920075 162.875 22.1875 C162.06724729 20.99682484 161.25863709 19.806731 160.44921875 18.6171875 C160.04106934 18.01358398 159.63291992 17.40998047 159.21240234 16.78808594 C157.39690594 14.1105395 155.55486453 11.45413762 153.6875 8.8125 C153.07261719 7.93207031 152.45773438 7.05164063 151.82421875 6.14453125 C149.98574258 3.98323913 148.61255684 3.03233482 146 2 Z " fill="#FEFEFD" transform="translate(0,0)"/>
<path d="M0 0 C0.66 0 1.32 0 2 0 C3.4453125 2.01953125 3.4453125 2.01953125 5.125 4.8125 C8.79766848 10.7660889 12.82374782 16.39188993 17 22 C20.54453217 21.40322053 23.50733275 20.45839188 26.7578125 18.93359375 C27.63050781 18.53076172 28.50320312 18.12792969 29.40234375 17.71289062 C31.22535515 16.85892617 33.04827103 16.00475775 34.87109375 15.15039062 C35.74121094 14.74884766 36.61132812 14.34730469 37.5078125 13.93359375 C38.29816895 13.56290771 39.08852539 13.19222168 39.90283203 12.81030273 C42 12 42 12 45 12 C45.33865898 15.52034206 45.66996095 19.04134018 46 22.5625 C46.14308594 24.0484668 46.14308594 24.0484668 46.2890625 25.56445312 C46.77008121 30.73540428 47.11653634 35.80684952 47 41 C47.83809204 41.03758423 47.83809204 41.03758423 48.69311523 41.07592773 C51.27472428 41.19343105 53.85610236 41.3154438 56.4375 41.4375 C57.31599609 41.47681641 58.19449219 41.51613281 59.09960938 41.55664062 C64.76947262 41.82862668 70.36448953 42.31777645 76 43 C74.55350065 47.67053772 72.67123052 52.03647642 70.5625 56.4375 C68.27073256 61.25267588 66.07331079 66.08619003 64 71 C64.64453125 71.20753906 65.2890625 71.41507812 65.953125 71.62890625 C70.25082713 73.56287221 73.91489774 76.21800506 77.75 78.9375 C78.52988281 79.47568359 79.30976563 80.01386719 80.11328125 80.56835938 C80.85449219 81.09107422 81.59570312 81.61378906 82.359375 82.15234375 C83.03452148 82.62663818 83.70966797 83.10093262 84.40527344 83.58959961 C86 85 86 85 87 88 C83.73339038 90.31851241 80.46102124 92.62875884 77.1875 94.9375 C76.25873047 95.59685547 75.32996094 96.25621094 74.37304688 96.93554688 C73.0340332 97.87817383 73.0340332 97.87817383 71.66796875 98.83984375 C70.43469849 99.71177368 70.43469849 99.71177368 69.17651367 100.60131836 C67 102 67 102 64 103 C64.36351562 103.74161377 64.72703125 104.48322754 65.1015625 105.24731445 C66.74046137 108.59944046 68.37032395 111.95588121 70 115.3125 C70.57234375 116.47974609 71.1446875 117.64699219 71.734375 118.84960938 C72.27578125 119.96787109 72.8171875 121.08613281 73.375 122.23828125 C73.87773437 123.26993408 74.38046875 124.30158691 74.8984375 125.36450195 C76 128 76 128 76 131 C72.29204724 131.33765809 68.58358419 131.66935514 64.875 132 C63.30492187 132.14308594 63.30492187 132.14308594 61.703125 132.2890625 C56.7882167 132.7245607 51.94027946 133.13675514 47 133 C46.30009496 142.6646462 45.63647524 152.33099311 45 162 C41.31484308 161.39808144 38.33396986 160.36092126 34.98828125 158.71484375 C34.06595703 158.26689453 33.14363281 157.81894531 32.19335938 157.35742188 C30.76733398 156.65456055 30.76733398 156.65456055 29.3125 155.9375 C27.41446093 155.00564291 25.51479893 154.07708182 23.61328125 153.15234375 C22.77579346 152.73976318 21.93830566 152.32718262 21.07543945 151.90209961 C19.0714647 150.86712417 19.0714647 150.86712417 17 151 C15.74476624 152.41614851 15.74476624 152.41614851 14.5390625 154.2890625 C14.06726563 154.98386719 13.59546875 155.67867187 13.109375 156.39453125 C12.61953125 157.13058594 12.1296875 157.86664063 11.625 158.625 C10.90183594 159.69427734 10.90183594 159.69427734 10.1640625 160.78515625 C8.76855665 162.85187008 7.3825725 164.92461748 6 167 C5.58975586 167.61456055 5.17951172 168.22912109 4.75683594 168.86230469 C3.83695397 170.24091193 2.91831635 171.62034937 2 173 C-1.1959228 171.64291483 -2.7784812 170.32916696 -4.69140625 167.4453125 C-5.16126953 166.74792969 -5.63113281 166.05054688 -6.11523438 165.33203125 C-6.59283203 164.60371094 -7.07042969 163.87539062 -7.5625 163.125 C-8.5215139 161.6896887 -9.48113157 160.2547806 -10.44140625 158.8203125 C-11.1068042 157.81919434 -11.1068042 157.81919434 -11.78564453 156.79785156 C-13.12591257 154.81358662 -14.53026323 152.8903685 -16 151 C-22.95534987 152.98724282 -29.12358492 155.95052953 -35.50195312 159.30664062 C-40.69306477 162 -40.69306477 162 -44 162 C-44.33 152.43 -44.66 142.86 -45 133 C-47.7225 132.855625 -50.445 132.71125 -53.25 132.5625 C-60.51231164 132.16805292 -67.75696249 131.66749561 -75 131 C-73.13759615 124.68852028 -70.68062511 119.28383608 -67.40234375 113.578125 C-65.44244688 109.97497197 -64 107.13683184 -64 103 C-66.08377011 101.34399711 -66.08377011 101.34399711 -68.8125 99.8125 C-74.78614223 96.1817668 -80.39608406 92.17312889 -86 88 C-84.48560494 83.89471219 -82.00578721 82.41377472 -78.375 80.125 C-73.41771158 76.93561203 -68.65466341 73.61420924 -64 70 C-65.56036286 64.9205209 -67.22669853 60.54821441 -70 56 C-71.84200464 51.72958475 -73.52933213 47.41200362 -75 43 C-55.65957447 40.61702128 -55.65957447 40.61702128 -46 41 C-46.0309375 39.906875 -46.061875 38.81375 -46.09375 37.6875 C-46.09375 32.38083914 -45.30160628 27.23571669 -44.5 22 C-44.35691406 21.03449219 -44.21382812 20.06898437 -44.06640625 19.07421875 C-43.71607574 16.71532665 -43.3605065 14.35735455 -43 12 C-36.91129075 13.86968403 -31.23889068 16.52728333 -25.45703125 19.16601562 C-24.68488281 19.51470703 -23.91273437 19.86339844 -23.1171875 20.22265625 C-22.42222168 20.53984619 -21.72725586 20.85703613 -21.01123047 21.18383789 C-19.02480879 21.98993253 -17.08975705 22.53362525 -15 23 C-14.5968457 21.89942261 -14.5968457 21.89942261 -14.18554688 20.77661133 C-12.27560166 16.30342209 -9.35058618 12.6047372 -6.5 8.6875 C-5.90574219 7.85154297 -5.31148438 7.01558594 -4.69921875 6.15429688 C-4.12816406 5.36474609 -3.55710937 4.57519531 -2.96875 3.76171875 C-2.18661133 2.678302 -2.18661133 2.678302 -1.38867188 1.57299805 C-0.93041016 1.05390869 -0.47214844 0.53481934 0 0 Z " fill="#F79648" transform="translate(147,16)"/>
<path d="M0 0 C5.07844891 0.52535678 10.12730572 1.14713215 15.1796875 1.8828125 C20.79313447 2.69144852 26.41021376 3.46485146 32.03125 4.21875 C34.3900387 4.53777268 36.7487424 4.85741692 39.10742188 5.17724609 C40.71654201 5.39431312 42.32592361 5.60944978 43.93554688 5.82275391 C46.30154457 6.13685392 48.66643663 6.45836952 51.03125 6.78125 C52.10010437 6.92040833 52.10010437 6.92040833 53.19055176 7.06237793 C58.9231052 7.85629502 64.11815838 9.04428631 68.875 12.4375 C69.76832031 13.05431641 69.76832031 13.05431641 70.6796875 13.68359375 C71.11539063 14.11800781 71.55109375 14.55242187 72 15 C72 15.99 72 16.98 72 18 C54.75390403 17.75553214 37.96563451 14.85196135 21 12 C21 12.66 21 13.32 21 14 C21.99 14.33 22.98 14.66 24 15 C25.83984375 17.01171875 25.83984375 17.01171875 27.9375 19.6875 C32.12615506 24.94048545 36.44424498 30.05678661 40.83764648 35.1394043 C41.79133785 36.24522798 42.7410127 37.35453232 43.68603516 38.46777344 C44.90458874 39.88874004 46.15990405 41.27795568 47.41796875 42.6640625 C49 45 49 45 49.03515625 47.04296875 C47.60565209 49.74554077 45.75383425 51.32151346 43.4375 53.3125 C42.53128906 54.10011719 41.62507813 54.88773438 40.69140625 55.69921875 C39.80324219 56.45847656 38.91507813 57.21773437 38 58 C36.62380408 59.2069711 35.24868605 60.41517312 33.875 61.625 C33.24078125 62.17542969 32.6065625 62.72585937 31.953125 63.29296875 C30.55729376 64.51292525 29.17310663 65.7462566 27.796875 66.98828125 C27.08015625 67.63152344 26.3634375 68.27476562 25.625 68.9375 C24.97789063 69.52402344 24.33078125 70.11054688 23.6640625 70.71484375 C22 72 22 72 20 72 C20 72.66 20 73.32 20 74 C27.92341657 74.93581196 35.84697996 75.86990054 43.77337646 76.78018188 C46.73047059 77.11999595 49.68726737 77.46235846 52.64404297 77.80493164 C54.15628743 77.97952323 55.66866204 78.15299058 57.18115234 78.32543945 C59.41018578 78.57986831 61.63871615 78.83835638 63.8671875 79.09765625 C65.16769043 79.24726807 66.46819336 79.39687988 67.80810547 79.55102539 C71 80 71 80 74 81 C74 70.11 74 59.22 74 48 C76.64 48 79.28 48 82 48 C82 62.85 82 77.7 82 93 C85.50625 93.144375 89.0125 93.28875 92.625 93.4375 C98.98739183 93.70615891 105.33945845 93.98396565 111.6875 94.5 C114.12449694 94.67386762 116.56209339 94.83939062 119 95 C119.8264502 95.05720215 120.65290039 95.1144043 121.50439453 95.17333984 C140.86170147 96.42707756 160.05215011 95.65915052 179.40917969 94.76245117 C180.46338104 94.71408112 181.5175824 94.66571106 182.60372925 94.61587524 C184.57128429 94.52426436 186.53869324 94.42942259 188.50588989 94.33041382 C196.03117435 93.9732718 203.43756426 94 211 94 C211 79.15 211 64.3 211 49 C213.64 49 216.28 49 219 49 C219 59.56 219 70.12 219 81 C229.8825404 79.71970113 240.69228388 78.16258597 251.50927734 76.40917969 C258.66012347 75.27440239 265.77699684 74.49984219 273 74 C273 73.34 273 72.68 273 72 C272.19755859 71.67708984 272.19755859 71.67708984 271.37890625 71.34765625 C268.13084943 69.50762406 265.61502571 67.00220415 262.9375 64.4375 C257.84516886 59.6211366 252.62296886 55.19209185 247.046875 50.9375 C245 49 245 49 243.9296875 47.06640625 C244.04432015 43.69748013 246.06902113 42.28849047 248.375 39.9375 C249.31090696 38.95923909 250.24444913 37.97871104 251.17578125 36.99609375 C251.65096191 36.49835449 252.12614258 36.00061523 252.61572266 35.48779297 C256.30295061 31.5248358 259.60607582 27.21294408 263 23 C264.68400807 20.93462127 266.37340272 18.87372653 268.0625 16.8125 C269.37509033 15.20840724 270.68760589 13.6042533 272 12 C271.24605957 12.11069824 270.49211914 12.22139648 269.71533203 12.33544922 C244.29048062 16.05493197 244.29048062 16.05493197 233.5625 17.25 C232.85561035 17.32976074 232.1487207 17.40952148 231.42041016 17.49169922 C227.93152611 17.8644322 224.50869002 18.08112578 221 18 C221.55675327 14.69858931 222.3282004 13.29502274 225.05078125 11.34765625 C228.8880228 8.80150384 232.66100753 7.96233219 237.1875 7.4375 C237.98414063 7.32801025 238.78078125 7.21852051 239.6015625 7.10571289 C241.39005604 6.86080358 243.17970317 6.62422156 244.97021484 6.39453125 C249.58544767 5.79354686 254.19109427 5.12777843 258.7980957 4.46704102 C261.21134929 4.12183578 263.62522824 3.78096608 266.03979492 3.44506836 C272.2960053 2.5688871 278.50683004 1.58873658 284.70825195 0.3815918 C287.4952893 -0.08246907 290.18110804 -0.15237254 293 0 C291.49993609 3.44779086 289.49590738 5.82360533 286.9375 8.5625 C282.9453277 12.91701915 279.18371852 17.40080035 275.46875 21.9921875 C272.09819229 26.09872142 268.63438902 30.12205119 265.16088867 34.14160156 C264.20760721 35.24662467 263.25842172 36.35519857 262.31396484 37.46777344 C261.09541126 38.88874004 259.84009595 40.27795568 258.58203125 41.6640625 C256.8239149 43.80875575 256.8239149 43.80875575 256.9453125 46.01953125 C258.45544731 48.85522884 260.46516825 50.5678038 262.875 52.6875 C263.36750244 53.12392822 263.86000488 53.56035645 264.36743164 54.01000977 C268.52671818 57.66650359 272.83005544 61.14132361 277.140625 64.6171875 C282.26511439 68.88759533 287.12543357 73.44870325 292 78 C287.59072095 82.40927905 279.18631686 82.13161243 273.24609375 82.8984375 C267.57712309 83.64000407 261.91997447 84.44347523 256.265625 85.2890625 C254.76955477 85.51057555 253.27346085 85.73192873 251.77734375 85.953125 C249.50408329 86.28932179 247.23129583 86.62784689 244.95947266 86.97363281 C236.25492174 88.29504208 227.83415026 89.29655275 219 89 C219 92.96 219 96.92 219 101 C174.12763674 106.75462369 118.5420608 109.90841216 74 101 C74 97.04 74 93.08 74 89 C71.50179687 88.81824219 71.50179687 88.81824219 68.953125 88.6328125 C66.71872859 88.46382454 64.48435477 88.29453768 62.25 88.125 C61.15816406 88.04636719 60.06632812 87.96773438 58.94140625 87.88671875 C52.45408655 87.38769416 46.11334125 86.59540828 39.70654297 85.46386719 C36.12403196 84.84987017 32.55188817 84.44857402 28.9375 84.0625 C19.5746079 83.02326345 10.29335856 81.53019076 1 80 C2.57636578 75.67011217 5.92733173 73.26755876 9.375 70.4375 C10.64601699 69.37286499 11.91552045 68.30642075 13.18359375 67.23828125 C14.14241455 66.43124756 14.14241455 66.43124756 15.12060547 65.60791016 C17.95646811 63.18169668 20.70082343 60.66192558 23.4375 58.125 C35.49629161 47 35.49629161 47 38 47 C33.41345443 40.89537245 28.54045594 35.07686786 23.55029297 29.30297852 C20.42981535 25.68674681 17.37478902 22.03032363 14.375 18.3125 C10.4099867 13.40897897 6.19410084 8.80104762 1.87109375 4.21484375 C0 2 0 2 0 0 Z " fill="#F7994B" transform="translate(1,107)"/>
<path d="M0 0 C0 17.82 0 35.64 0 54 C3.96 54 7.92 54 12 54 C12 56.64 12 59.28 12 62 C0.12 62 -11.76 62 -24 62 C-24 59.36 -24 56.72 -24 54 C-20.04 54 -16.08 54 -12 54 C-12 39.81 -12 25.62 -12 11 C-15.96 11.66 -19.92 12.32 -24 13 C-24.1875 9.625 -24.1875 9.625 -24 6 C-21.28106791 4.1873786 -19.94000232 3.59912685 -16.875 2.9296875 C-15.69164062 2.66865234 -15.69164062 2.66865234 -14.484375 2.40234375 C-13.25460938 2.14130859 -13.25460938 2.14130859 -12 1.875 C-11.18015625 1.69324219 -10.3603125 1.51148437 -9.515625 1.32421875 C-6.25244944 0.61506458 -3.35204643 0 0 0 Z " fill="#FEF9F5" transform="translate(154,69)"/>
<path d="M0 0 C4.16138263 -0.08159574 7.9472484 0.01751476 12 1 C12 1.33 12 1.66 12 2 C10.02 2.33 8.04 2.66 6 3 C6.33 3.99 6.66 4.98 7 6 C4 6 4 6 1.8125 4.125 C0 2 0 2 0 0 Z " fill="#FCD9BC" transform="translate(22,119)"/>
<path d="M0 0 C-0.33 1.32 -0.66 2.64 -1 4 C-3.97 4 -6.94 4 -10 4 C-6.41473576 0.41473576 -4.91253954 0 0 0 Z " fill="#F8A159" transform="translate(69,132)"/>
<path d="M0 0 C1.48117801 0.28127421 2.95993249 0.57533732 4.4375 0.875 C5.67306641 1.11863281 5.67306641 1.11863281 6.93359375 1.3671875 C7.61550781 1.57601562 8.29742187 1.78484375 9 2 C9.33 2.66 9.66 3.32 10 4 C7.36 4 4.72 4 2 4 C1.34 2.68 0.68 1.36 0 0 Z " fill="#F79E55" transform="translate(226,132)"/>
<path d="M0 0 C-1.75 3.875 -1.75 3.875 -4 5 C-4.33 4.34 -4.66 3.68 -5 3 C-7.32156597 2.59270772 -9.6568787 2.25561323 -12 2 C-12 1.67 -12 1.34 -12 1 C-7.93631321 0.22596442 -4.13574827 -0.0984702 0 0 Z " fill="#F9AE70" transform="translate(294,107)"/>
<path d="M0 0 C2.97 0.33 5.94 0.66 9 1 C5.375 4 5.375 4 2 4 C1.34 2.68 0.68 1.36 0 0 Z " fill="#F8A867" transform="translate(1,107)"/>
</svg>
